<?xml version="1.0" encoding="UTF-8"?>
<svg id="Layer_1" data-name="Layer 1" xmlns="http://www.w3.org/2000/svg" viewBox="0 0 981.86 116.48">
  <defs>
    <style>
      .cls-1 {
        fill: #ff78c6;
      }

      .cls-2 {
        fill: #fff;
      }
    </style>
  </defs>
  <g>
    <path class="cls-2" d="M176.91,58.4c-4.91,0-9.44-.8-13.6-2.4l-4,4.8c-1.28,1.6-1.63,3.12-1.04,4.56.58,1.44,2,2.16,4.24,2.16h20.96c9.28,0,16.77,1.95,22.48,5.84,5.71,3.9,8.56,9.84,8.56,17.84,0,5.01-1.25,9.57-3.76,13.68-2.51,4.1-6.51,7.38-12,9.84-5.5,2.45-12.72,3.68-21.68,3.68-11.31,0-20.4-2.11-27.28-6.32-6.88-4.21-10.32-10.53-10.32-18.96,0-2.99.72-5.73,2.16-8.24,1.44-2.51,3.33-4.77,5.68-6.8-2.88-2.13-4.62-5.15-5.2-9.04-.59-3.89.56-7.65,3.44-11.28l7.04-8.96c-5.02-5.33-7.52-11.89-7.52-19.68,0-5.22,1.25-10.05,3.76-14.48,2.5-4.42,6.13-7.97,10.88-10.64,4.75-2.67,10.48-4,17.2-4,4.37,0,8.42.64,12.16,1.92h29.92v11.2l-13.92.8v1.44c2.24,4.16,3.36,8.75,3.36,13.76s-1.25,10.08-3.76,14.56c-2.51,4.48-6.11,8.06-10.8,10.72-4.7,2.67-10.35,4-16.96,4ZM155.47,91.84c0,4.27,2.05,7.41,6.16,9.44,4.1,2.02,9.25,3.04,15.44,3.04,6.61,0,11.84-1.12,15.68-3.36,3.84-2.24,5.76-5.39,5.76-9.44,0-3.42-1.39-6.11-4.16-8.08-2.78-1.98-7.47-2.96-14.08-2.96h-18.72c-4.05,3.2-6.08,6.98-6.08,11.36ZM176.91,44.8c4.69,0,8.56-1.39,11.6-4.16,3.04-2.77,4.56-6.61,4.56-11.52s-1.52-8.42-4.56-11.2c-3.04-2.77-6.91-4.16-11.6-4.16s-8.72,1.39-11.76,4.16c-3.04,2.77-4.56,6.51-4.56,11.2s1.52,8.75,4.56,11.52c3.04,2.77,6.96,4.16,11.76,4.16Z"/>
    <path class="cls-2" d="M264.43,83.2c-9.6,0-16.88-2.96-21.84-8.88s-7.44-14.53-7.44-25.84V1.92h16.96v44.48c0,6.51,1.41,11.6,4.24,15.28,2.83,3.68,7.17,5.52,13.04,5.52s10.77-1.97,14.72-5.92c3.94-3.94,5.92-9.65,5.92-17.12V1.92h16.96v79.36h-14.72l-1.44-11.84h-.8c-2.14,3.84-5.44,7.09-9.92,9.76s-9.71,4-15.68,4Z"/>
    <path class="cls-2" d="M323.47,81.28V1.92h14.08l1.44,9.28h.8c1.39-3.3,3.52-6,6.4-8.08,2.88-2.08,6.29-3.12,10.24-3.12s7.2.96,10.08,2.88,5.01,4.69,6.4,8.32h.64c1.38-3.2,3.57-5.86,6.56-8,2.98-2.13,6.67-3.2,11.04-3.2,5.86,0,10.32,1.92,13.36,5.76s4.56,9.23,4.56,16.16v59.36h-16.32V25.28c0-3.2-.67-5.73-2-7.6-1.33-1.86-3.44-2.8-6.32-2.8s-5.25,1.12-7.12,3.36c-1.87,2.24-2.8,5.39-2.8,9.44v53.6h-16.48V25.28c0-3.2-.64-5.73-1.92-7.6-1.28-1.86-3.36-2.8-6.24-2.8s-5.28,1.12-7.2,3.36c-1.92,2.24-2.88,5.39-2.88,9.44v53.6h-16.32Z"/>
    <path class="cls-2" d="M425.87,81.28V1.92h14.08l1.44,9.28h.8c1.38-3.3,3.52-6,6.4-8.08,2.88-2.08,6.29-3.12,10.24-3.12s7.2.96,10.08,2.88,5.01,4.69,6.4,8.32h.64c1.38-3.2,3.57-5.86,6.56-8,2.98-2.13,6.67-3.2,11.04-3.2,5.86,0,10.32,1.92,13.36,5.76s4.56,9.23,4.56,16.16v59.36h-16.32V25.28c0-3.2-.67-5.73-2-7.6-1.33-1.86-3.44-2.8-6.32-2.8s-5.25,1.12-7.12,3.36c-1.87,2.24-2.8,5.39-2.8,9.44v53.6h-16.48V25.28c0-3.2-.64-5.73-1.92-7.6-1.28-1.86-3.36-2.8-6.24-2.8s-5.28,1.12-7.2,3.36c-1.92,2.24-2.88,5.39-2.88,9.44v53.6h-16.32Z"/>
    <path class="cls-2" d="M540.75,116.48l18.88-41.76h-4.64L524.11,1.92h18.4l23.68,58.08,25.12-58.08h17.76l-50.4,114.56h-17.92Z"/>
    <path class="cls-2" d="M632.42,81.28L615.15,1.92h16.64l9.6,55.68,11.36-55.68h18.24l11.36,55.68,9.6-55.68h16.64l-17.28,79.36h-17.44l-12-57.28-12,57.28h-17.44Z"/>
    <path class="cls-2" d="M757.86,83.2c-7.58,0-14.35-1.71-20.32-5.12-5.97-3.41-10.67-8.24-14.08-14.48-3.42-6.24-5.12-13.57-5.12-22s1.7-15.76,5.12-22c3.41-6.24,8.11-11.06,14.08-14.48,5.97-3.41,12.8-5.12,20.48-5.12s14.48,1.71,20.4,5.12c5.92,3.42,10.56,8.24,13.92,14.48,3.36,6.24,5.04,13.58,5.04,22s-1.71,15.76-5.12,22c-3.42,6.24-8.08,11.07-14,14.48-5.92,3.41-12.72,5.12-20.4,5.12ZM757.86,67.04c4.05,0,7.79-.9,11.2-2.72,3.41-1.81,6.16-4.61,8.24-8.4,2.08-3.79,3.12-8.56,3.12-14.32s-1.04-10.67-3.12-14.4c-2.08-3.73-4.8-6.5-8.16-8.32-3.36-1.81-7.07-2.72-11.12-2.72s-7.79.91-11.2,2.72c-3.42,1.81-6.16,4.59-8.24,8.32-2.08,3.73-3.12,8.54-3.12,14.4,0,8.75,2.21,15.18,6.64,19.28,4.42,4.11,9.68,6.16,15.76,6.16Z"/>
    <path class="cls-2" d="M805.38,81.28v-14.72h19.36V21.92c0-3.52-1.71-5.28-5.12-5.28h-12.64V1.92h19.04c4.37,0,7.95,1.25,10.72,3.76,2.77,2.51,4.16,6,4.16,10.48v1.92h.8c1.17-5.97,3.71-10.48,7.6-13.52,3.89-3.04,9.57-4.56,17.04-4.56h12.32v17.92h-17.28c-6.29,0-11.15,2.19-14.56,6.56-3.42,4.38-5.12,9.6-5.12,15.68v26.4h24.64v14.72h-60.96Z"/>
    <path class="cls-2" d="M896.26,81.28V1.92h14.08l1.44,9.28h.8c1.38-3.3,3.52-6,6.4-8.08s6.29-3.12,10.24-3.12,7.2.96,10.08,2.88,5.01,4.69,6.4,8.32h.64c1.38-3.2,3.57-5.86,6.56-8,2.99-2.13,6.67-3.2,11.04-3.2,5.87,0,10.32,1.92,13.36,5.76s4.56,9.23,4.56,16.16v59.36h-16.32V25.28c0-3.2-.67-5.73-2-7.6-1.33-1.86-3.44-2.8-6.32-2.8s-5.25,1.12-7.12,3.36c-1.87,2.24-2.8,5.39-2.8,9.44v53.6h-16.48V25.28c0-3.2-.64-5.73-1.92-7.6-1.28-1.86-3.36-2.8-6.24-2.8s-5.28,1.12-7.2,3.36c-1.92,2.24-2.88,5.39-2.88,9.44v53.6h-16.32Z"/>
  </g>
  <g>
    <path class="cls-1" d="M80.46,61.15c-5.22,0-9.95-.9-14.18-2.7-4.23-1.8-8.23-3.92-12.02-6.35-3.78-2.43-7.47-4.54-11.07-6.34-3.6-1.8-7.29-2.7-11.07-2.7-4.5,0-8.15,1.67-10.94,5-2.79,3.33-4.55,7.61-5.27,12.82H0C2.16,37.66,13.32,26.05,33.48,26.05c5.22,0,9.94.9,14.18,2.7,4.23,1.8,8.23,3.92,12.02,6.35,3.78,2.43,7.47,4.55,11.07,6.34,3.6,1.8,7.29,2.7,11.07,2.7,4.5,0,8.14-1.66,10.94-5,2.79-3.33,4.54-7.6,5.27-12.83h15.93c-2.16,23.22-13.32,34.83-33.48,34.83Z"/>
    <path class="cls-1" d="M113.94,26.32c-.81,7.59-3.56,7.68-7.95,7.68s-8.75-3.23-7.98-7.68,3.59-8.22,7.98-8.22,8.45,3.54,7.95,8.22Z"/>
    <path class="cls-1" d="M15.93,60.88c-.51,4.36-3.59,8.22-7.98,8.22S0,66.25,0,60.88c0-4.93,2.47-8.2,7.95-7.68,4.37.41,8.54,2.89,7.98,7.68Z"/>
  </g>
</svg>
